<svg width="48" height="48" viewBox="0 0 48 48" fill="none" xmlns="http://www.w3.org/2000/svg">
<path d="M17.6 19.7333L18.4533 20.3733C18.5722 20.2149 18.6446 20.0264 18.6624 19.8291C18.6801 19.6318 18.6426 19.4335 18.5541 19.2563C18.4655 19.0791 18.3293 18.9301 18.1608 18.826C17.9923 18.7218 17.7981 18.6667 17.6 18.6667V19.7333ZM14.4 24L13.5467 23.36C13.4278 23.5185 13.3554 23.7069 13.3376 23.9042C13.3199 24.1015 13.3574 24.2999 13.4459 24.477C13.5345 24.6542 13.6707 24.8032 13.8392 24.9074C14.0077 25.0115 14.2019 25.0667 14.4 25.0667V24ZM12.2667 20.8H17.6V18.6667H12.2667V20.8ZM16.7467 19.0933L13.5467 23.36L15.2533 24.64L18.4533 20.3733L16.7467 19.0933ZM14.4 25.0667H15.4667V22.9333H14.4V25.0667ZM15.4667 27.2H12.2667V29.3333H15.4667V27.2ZM16.5333 26.1333C16.5333 26.4162 16.421 26.6875 16.2209 26.8876C16.0209 27.0876 15.7496 27.2 15.4667 27.2V29.3333C16.3154 29.3333 17.1293 28.9962 17.7294 28.3961C18.3295 27.796 18.6667 26.982 18.6667 26.1333H16.5333ZM15.4667 25.0667C15.7496 25.0667 16.0209 25.1791 16.2209 25.3791C16.421 25.5791 16.5333 25.8504 16.5333 26.1333H18.6667C18.6667 25.2846 18.3295 24.4707 17.7294 23.8706C17.1293 23.2705 16.3154 22.9333 15.4667 22.9333V25.0667ZM25.0667 18.6667H24V20.8H25.0667V18.6667ZM20.8 21.8667V24H22.9333V21.8667H20.8ZM20.8 24V26.1333H22.9333V24H20.8ZM24 22.9333H21.8667V25.0667H24V22.9333ZM27.2 26.1333C27.2 25.2846 26.8629 24.4707 26.2627 23.8706C25.6626 23.2705 24.8487 22.9333 24 22.9333V25.0667C24.2829 25.0667 24.5542 25.1791 24.7542 25.3791C24.9543 25.5791 25.0667 25.8504 25.0667 26.1333H27.2ZM24 29.3333C24.8487 29.3333 25.6626 28.9962 26.2627 28.3961C26.8629 27.796 27.2 26.982 27.2 26.1333H25.0667C25.0667 26.4162 24.9543 26.6875 24.7542 26.8876C24.5542 27.0876 24.2829 27.2 24 27.2V29.3333ZM24 27.2C23.7171 27.2 23.4458 27.0876 23.2458 26.8876C23.0457 26.6875 22.9333 26.4162 22.9333 26.1333H20.8C20.8 26.982 21.1371 27.796 21.7373 28.3961C22.3374 28.9962 23.1513 29.3333 24 29.3333V27.2ZM24 18.6667C23.1513 18.6667 22.3374 19.0038 21.7373 19.6039C21.1371 20.204 20.8 21.018 20.8 21.8667H22.9333C22.9333 21.5838 23.0457 21.3125 23.2458 21.1124C23.4458 20.9124 23.7171 20.8 24 20.8V18.6667ZM33.6 21.8667V26.1333H35.7333V21.8667H33.6ZM31.4667 26.1333V21.8667H29.3333V26.1333H31.4667ZM32.5333 27.2C32.2504 27.2 31.9791 27.0876 31.7791 26.8876C31.579 26.6875 31.4667 26.4162 31.4667 26.1333H29.3333C29.3333 26.982 29.6705 27.796 30.2706 28.3961C30.8707 28.9962 31.6846 29.3333 32.5333 29.3333V27.2ZM33.6 26.1333C33.6 26.4162 33.4876 26.6875 33.2876 26.8876C33.0875 27.0876 32.8162 27.2 32.5333 27.2V29.3333C33.382 29.3333 34.196 28.9962 34.7961 28.3961C35.3962 27.796 35.7333 26.982 35.7333 26.1333H33.6ZM32.5333 20.8C32.8162 20.8 33.0875 20.9124 33.2876 21.1124C33.4876 21.3125 33.6 21.5838 33.6 21.8667H35.7333C35.7333 21.018 35.3962 20.204 34.7961 19.6039C34.196 19.0038 33.382 18.6667 32.5333 18.6667V20.8ZM32.5333 18.6667C31.6846 18.6667 30.8707 19.0038 30.2706 19.6039C29.6705 20.204 29.3333 21.018 29.3333 21.8667H31.4667C31.4667 21.5838 31.579 21.3125 31.7791 21.1124C31.9791 20.9124 32.2504 20.8 32.5333 20.8V18.6667ZM24 37.8667C20.3223 37.8667 16.7953 36.4057 14.1948 33.8052C11.5943 31.2047 10.1333 27.6777 10.1333 24H8C8 28.2435 9.68571 32.3131 12.6863 35.3137C15.6869 38.3143 19.7565 40 24 40V37.8667ZM37.8667 24C37.8667 25.821 37.508 27.6242 36.8111 29.3065C36.1143 30.9889 35.0929 32.5176 33.8052 33.8052C32.5176 35.0929 30.9889 36.1143 29.3065 36.8111C27.6242 37.508 25.821 37.8667 24 37.8667V40C28.2435 40 32.3131 38.3143 35.3137 35.3137C38.3143 32.3131 40 28.2435 40 24H37.8667ZM24 8.00001C19.7565 8.00001 15.6869 9.68572 12.6863 12.6863C9.68571 15.6869 8 19.7565 8 24H10.1333C10.1333 20.3223 11.5943 16.7953 14.1948 14.1948C16.7953 11.5943 20.3223 10.1333 24 10.1333V8.00001ZM36.8 14.4C37.0829 14.4 37.3542 14.5124 37.5542 14.7124C37.7543 14.9125 37.8667 15.1838 37.8667 15.4667H40C40 14.618 39.6629 13.8041 39.0627 13.2039C38.4626 12.6038 37.6487 12.2667 36.8 12.2667V14.4ZM36.8 16.5333C36.5171 16.5333 36.2458 16.421 36.0458 16.2209C35.8457 16.0209 35.7333 15.7496 35.7333 15.4667H33.6C33.6 16.3154 33.9371 17.1293 34.5373 17.7294C35.1374 18.3295 35.9513 18.6667 36.8 18.6667V16.5333ZM35.7333 15.4667C35.7333 15.2043 35.8272 14.9653 35.9851 14.7776L34.3573 13.3995C33.8859 13.9563 33.6 14.6795 33.6 15.4667H35.7333ZM35.9851 14.7776C36.0853 14.6592 36.2101 14.5641 36.3509 14.4989C36.4916 14.4336 36.6449 14.3999 36.8 14.4V12.2667C35.8187 12.2667 34.9419 12.7083 34.3573 13.3995L35.9851 14.7776ZM24 10.1333C28.1259 10.1333 31.8315 11.9339 34.3723 14.7968L35.968 13.3803C34.4685 11.6864 32.626 10.3307 30.5626 9.40307C28.4993 8.47548 26.2623 7.99722 24 8.00001V10.1333ZM36.4885 17.9627C37.3717 19.7888 37.8667 21.8347 37.8667 24H40C40 21.504 39.4283 19.1424 38.4085 17.0347L36.4885 17.9627ZM37.8667 15.4667C37.867 15.6931 37.7952 15.9138 37.6617 16.0968C37.5282 16.2797 37.34 16.4154 37.1243 16.4843L37.7728 18.5152C38.4193 18.3089 38.9835 17.9024 39.3839 17.3544C39.7842 16.8064 40 16.1453 40 15.4667H37.8667ZM37.1243 16.4843C37.0194 16.5172 36.91 16.5338 36.8 16.5333V18.6667C37.13 18.6674 37.4582 18.6149 37.7728 18.5152L37.1243 16.4843Z" fill="#4B626A"/>
</svg>
