<svg width="48" height="48" viewBox="0 0 48 48" fill="none" xmlns="http://www.w3.org/2000/svg">
<mask id="mask0_145_4809" style="mask-type:alpha" maskUnits="userSpaceOnUse" x="0" y="0" width="48" height="48">
<rect width="48" height="48" fill="#D9D9D9"/>
</mask>
<g mask="url(#mask0_145_4809)">
<path d="M17.85 39.6492L15.7 37.4992L19.7 33.4492C15.1667 32.9492 11.4167 31.8492 8.45 30.1492C5.48333 28.4492 4 26.2992 4 23.6992C4 21.0659 5.94167 18.8242 9.825 16.9742C13.7083 15.1242 18.4333 14.1992 24 14.1992C29.6 14.1992 34.3333 15.1242 38.2 16.9742C42.0667 18.8242 44 21.0659 44 23.6992C44 25.6659 42.9333 27.3992 40.8 28.8992C38.6667 30.3992 35.8333 31.5659 32.3 32.3992V29.1492C34.9667 28.4826 37.0833 27.6159 38.65 26.5492C40.2167 25.4826 41 24.5326 41 23.6992C41 22.6326 39.6083 21.2826 36.825 19.6492C34.0417 18.0159 29.7667 17.1992 24 17.1992C18.2667 17.1992 14 18.0159 11.2 19.6492C8.4 21.2826 7 22.6326 7 23.6992C7 25.1992 7.95833 26.4909 9.875 27.5742C11.7917 28.6576 15.1167 29.6492 19.85 30.5492L15.7 26.4992L17.85 24.3492L25.5 31.9492L17.85 39.6492Z" fill="#4b626a"/>
</g>
</svg>
