<svg width="48" height="48" viewBox="0 0 48 48" fill="none" xmlns="http://www.w3.org/2000/svg">
<mask id="mask0_34_427" style="mask-type:alpha" maskUnits="userSpaceOnUse" x="0" y="0" width="48" height="48">
<rect width="48" height="48" fill="#D9D9D9"/>
</mask>
<g mask="url(#mask0_34_427)">
<path d="M4 38V25.25C4 24.4167 4.16667 23.6333 4.5 22.9C4.83333 22.1667 5.33333 21.5667 6 21.1V15.3C6 13.8 6.50833 12.5417 7.525 11.525C8.54167 10.5083 9.8 10 11.3 10H20.3C21.0333 10 21.7167 10.1667 22.35 10.5C22.9833 10.8333 23.5333 11.2833 24 11.85C24.4667 11.2833 25.0083 10.8333 25.625 10.5C26.2417 10.1667 26.9167 10 27.65 10H36.65C38.15 10 39.4167 10.5083 40.45 11.525C41.4833 12.5417 42 13.8 42 15.3V21.1C42.6667 21.5667 43.1667 22.1667 43.5 22.9C43.8333 23.6333 44 24.4167 44 25.25V38H41V34H7V38H4ZM25.5 20.25H39V15.3C39 14.6333 38.775 14.0833 38.325 13.65C37.875 13.2167 37.3167 13 36.65 13H27.5C26.9333 13 26.4583 13.2333 26.075 13.7C25.6917 14.1667 25.5 14.7 25.5 15.3V20.25ZM9 20.25H22.5V15.3C22.5 14.7 22.3083 14.1667 21.925 13.7C21.5417 13.2333 21.0667 13 20.5 13H11.3C10.6667 13 10.125 13.225 9.675 13.675C9.225 14.125 9 14.6667 9 15.3V20.25ZM7 31H41V25.25C41 24.6833 40.8083 24.2083 40.425 23.825C40.0417 23.4417 39.5667 23.25 39 23.25H9C8.43333 23.25 7.95833 23.4417 7.575 23.825C7.19167 24.2083 7 24.6833 7 25.25V31Z" fill="#4B626A"/>
</g>
</svg>
