<svg width="48" height="49" viewBox="0 0 48 49" fill="none" xmlns="http://www.w3.org/2000/svg">
<path d="M24 8.67969C19.6547 8.67969 19.1098 8.69812 17.4032 8.77596C15.7002 8.85365 14.5371 9.12416 13.5194 9.51962C12.4672 9.92851 11.5749 10.4756 10.6855 11.3651C9.79595 12.2546 9.24882 13.147 8.83998 14.1991C8.44443 15.2168 8.17401 16.3799 8.09622 18.0829C8.01839 19.7895 8 20.3344 8 24.6797C8 29.025 8.01839 29.5699 8.09622 31.2765C8.17401 32.9795 8.44443 34.1426 8.83998 35.1603C9.24887 36.2124 9.79599 37.1047 10.6855 37.9943C11.575 38.8837 12.4672 39.4309 13.5194 39.8398C14.5371 40.2352 15.7002 40.5057 17.4032 40.5834C19.1098 40.6613 19.6547 40.6797 24 40.6797C28.3453 40.6797 28.8902 40.6613 30.5968 40.5834C32.2998 40.5057 33.4629 40.2352 34.4806 39.8398C35.5327 39.4309 36.425 38.8837 37.3146 37.9943C38.2041 37.1047 38.7512 36.2124 39.1601 35.1603C39.5555 34.1426 39.826 32.9795 39.9037 31.2765C39.9816 29.5699 40 29.025 40 24.6797C40 20.3344 39.9816 19.7895 39.9037 18.0829C39.826 16.3799 39.5555 15.2168 39.1601 14.1991C38.7512 13.147 38.2041 12.2546 37.3146 11.3651C36.425 10.4756 35.5327 9.92851 34.4806 9.51962C33.4629 9.12416 32.2998 8.85365 30.5968 8.77596C28.8902 8.69812 28.3453 8.67969 24 8.67969ZM24 11.5625C28.2722 11.5625 28.7782 11.5789 30.4654 11.6559C32.0254 11.727 32.8726 11.9876 33.4363 12.2068C34.1832 12.497 34.7162 12.8437 35.276 13.4036C35.836 13.9635 36.1827 14.4965 36.4729 15.2433C36.692 15.8071 36.9527 16.6543 37.0238 18.2143C37.1008 19.9015 37.1171 20.4075 37.1171 24.6797C37.1171 28.9518 37.1008 29.4579 37.0238 31.1451C36.9527 32.7051 36.692 33.5522 36.4729 34.116C36.1827 34.8629 35.836 35.3959 35.276 35.9557C34.7162 36.5157 34.1832 36.8623 33.4364 37.1526C32.8726 37.3717 32.0253 37.6324 30.4654 37.7035C28.7785 37.7805 28.2725 37.7968 24 37.7968C19.7275 37.7968 19.2216 37.7805 17.5346 37.7035C15.9746 37.6324 15.1274 37.3717 14.5637 37.1526C13.8168 36.8623 13.2838 36.5157 12.724 35.9557C12.1641 35.3959 11.8173 34.8629 11.5271 34.116C11.3079 33.5522 11.0473 32.705 10.9762 31.1451C10.8992 29.4579 10.8829 28.9518 10.8829 24.6797C10.8829 20.4075 10.8992 19.9015 10.9762 18.2143C11.0473 16.6543 11.3079 15.8071 11.5271 15.2434C11.8173 14.4965 12.1641 13.9635 12.7239 13.4037C13.2838 12.8437 13.8168 12.497 14.5636 12.2068C15.1274 11.9876 15.9747 11.727 17.5346 11.6559C19.2218 11.5789 19.7278 11.5625 24 11.5625" fill="#4B626A"/>
<path d="M23.9999 30.013C21.0544 30.013 18.6666 27.6252 18.6666 24.6797C18.6666 21.7341 21.0544 19.3463 23.9999 19.3463C26.9454 19.3463 29.3332 21.7341 29.3332 24.6797C29.3332 27.6252 26.9454 30.013 23.9999 30.013ZM23.9999 16.4634C19.4622 16.4634 15.7837 20.1419 15.7837 24.6797C15.7837 29.2173 19.4622 32.8958 23.9999 32.8958C28.5376 32.8958 32.2161 29.2173 32.2161 24.6797C32.2161 20.1419 28.5376 16.4634 23.9999 16.4634ZM34.4608 16.1388C34.4608 17.1992 33.6011 18.0588 32.5407 18.0588C31.4804 18.0588 30.6207 17.1992 30.6207 16.1388C30.6207 15.0784 31.4804 14.2188 32.5407 14.2188C33.6011 14.2188 34.4608 15.0784 34.4608 16.1388Z" fill="#4B626A"/>
</svg>
