<svg width="48" height="48" viewBox="0 0 48 48" fill="none" xmlns="http://www.w3.org/2000/svg">
<mask id="mask0_145_7784" style="mask-type:alpha" maskUnits="userSpaceOnUse" x="0" y="0" width="48" height="48">
<rect width="48" height="48" fill="#D9D9D9"/>
</mask>
<g mask="url(#mask0_145_7784)">
<path d="M24.0045 23.5C24.9682 23.5 25.7917 23.1568 26.475 22.4705C27.1583 21.7842 27.5 20.9592 27.5 19.9955C27.5 19.0318 27.1568 18.2083 26.4705 17.525C25.7842 16.8417 24.9592 16.5 23.9955 16.5C23.0318 16.5 22.2083 16.8432 21.525 17.5295C20.8417 18.2158 20.5 19.0408 20.5 20.0045C20.5 20.9682 20.8432 21.7917 21.5295 22.475C22.2158 23.1583 23.0408 23.5 24.0045 23.5ZM24 40.05C28.4333 36.0167 31.7083 32.3583 33.825 29.075C35.9417 25.7917 37 22.9 37 20.4C37 16.4737 35.7452 13.2587 33.2355 10.755C30.7258 8.25167 27.6473 7 24 7C20.3527 7 17.2742 8.25167 14.7645 10.755C12.2548 13.2587 11 16.4737 11 20.4C11 22.9 12.0833 25.7917 14.25 29.075C16.4167 32.3583 19.6667 36.0167 24 40.05ZM24 44C18.6333 39.4333 14.625 35.1917 11.975 31.275C9.325 27.3583 8 23.7333 8 20.4C8 15.4 9.60833 11.4167 12.825 8.45C16.0417 5.48333 19.7667 4 24 4C28.2333 4 31.9583 5.48333 35.175 8.45C38.3917 11.4167 40 15.4 40 20.4C40 23.7333 38.675 27.3583 36.025 31.275C33.375 35.1917 29.3667 39.4333 24 44Z" fill="#4b626a"/>
</g>
</svg>
