<svg width="48" height="48" viewBox="0 0 48 48" fill="none" xmlns="http://www.w3.org/2000/svg">
<mask id="mask0_34_430" style="mask-type:alpha" maskUnits="userSpaceOnUse" x="0" y="0" width="48" height="48">
<rect width="48" height="48" fill="#D9D9D9"/>
</mask>
<g mask="url(#mask0_34_430)">
<path d="M23.995 14C23.165 14 22.4583 13.7067 21.875 13.12C21.2917 12.5333 21 11.825 21 10.995C21 10.165 21.2933 9.45833 21.88 8.875C22.4667 8.29167 23.175 8 24.005 8C24.835 8 25.5417 8.29333 26.125 8.88C26.7083 9.46667 27 10.175 27 11.005C27 11.835 26.7067 12.5417 26.12 13.125C25.5333 13.7083 24.825 14 23.995 14ZM21 40V30H19V20C19 19.175 19.2938 18.4687 19.8815 17.881C20.4688 17.2937 21.175 17 22 17H26C26.825 17 27.5313 17.2937 28.119 17.881C28.7063 18.4687 29 19.175 29 20V30H27V40H21Z" fill="#4B626A"/>
</g>
</svg>
