<svg width="48" height="48" viewBox="0 0 48 48" fill="none" xmlns="http://www.w3.org/2000/svg">
<mask id="mask0_34_423" style="mask-type:alpha" maskUnits="userSpaceOnUse" x="0" y="0" width="48" height="48">
<rect width="48" height="48" fill="#D9D9D9"/>
</mask>
<g mask="url(#mask0_34_423)">
<path d="M16.7 42V39H21V34H7C6.2 34 5.5 33.7 4.9 33.1C4.3 32.5 4 31.8 4 31V9C4 8.2 4.3 7.5 4.9 6.9C5.5 6.3 6.2 6 7 6H41C41.8 6 42.5 6.3 43.1 6.9C43.7 7.5 44 8.2 44 9V31C44 31.8 43.7 32.5 43.1 33.1C42.5 33.7 41.8 34 41 34H27V39H31.3V42H16.7ZM7 31H41V9H7V31Z" fill="#4B626A"/>
</g>
</svg>
