<svg width="48" height="48" viewBox="0 0 48 48" fill="none" xmlns="http://www.w3.org/2000/svg">
<mask id="mask0_34_421" style="mask-type:alpha" maskUnits="userSpaceOnUse" x="0" y="0" width="48" height="48">
<rect width="48" height="48" fill="#D9D9D9"/>
</mask>
<g mask="url(#mask0_34_421)">
<path d="M14.9 34.85C14.5 34.85 14.15 34.7 13.85 34.4C13.55 34.1 13.4 33.75 13.4 33.35C13.4 32.95 13.55 32.6 13.85 32.3C14.15 32 14.5 31.85 14.9 31.85C15.3 31.85 15.65 32 15.95 32.3C16.25 32.6 16.4 32.95 16.4 33.35C16.4 33.75 16.25 34.1 15.95 34.4C15.65 34.7 15.3 34.85 14.9 34.85ZM24 34.85C23.6 34.85 23.25 34.7 22.95 34.4C22.65 34.1 22.5 33.75 22.5 33.35C22.5 32.95 22.65 32.6 22.95 32.3C23.25 32 23.6 31.85 24 31.85C24.4 31.85 24.75 32 25.05 32.3C25.35 32.6 25.5 32.95 25.5 33.35C25.5 33.75 25.35 34.1 25.05 34.4C24.75 34.7 24.4 34.85 24 34.85ZM33.1 34.85C32.7 34.85 32.35 34.7 32.05 34.4C31.75 34.1 31.6 33.75 31.6 33.35C31.6 32.95 31.75 32.6 32.05 32.3C32.35 32 32.7 31.85 33.1 31.85C33.5 31.85 33.85 32 34.15 32.3C34.45 32.6 34.6 32.95 34.6 33.35C34.6 33.75 34.45 34.1 34.15 34.4C33.85 34.7 33.5 34.85 33.1 34.85ZM10 27.35V24.35C10 20.7833 11.2083 17.6667 13.625 15C16.0417 12.3333 19 10.8167 22.5 10.45V6H25.5V10.45C29 10.8167 31.9583 12.3333 34.375 15C36.7917 17.6667 38 20.7833 38 24.35V27.35H10ZM13 24.35H35C35 21.3167 33.9285 18.725 31.7855 16.575C29.6425 14.425 27.0508 13.35 24.0105 13.35C20.9702 13.35 18.375 14.4225 16.225 16.5675C14.075 18.7125 13 21.3067 13 24.35ZM14.9 42C14.5 42 14.15 41.85 13.85 41.55C13.55 41.25 13.4 40.9 13.4 40.5C13.4 40.1 13.55 39.75 13.85 39.45C14.15 39.15 14.5 39 14.9 39C15.3 39 15.65 39.15 15.95 39.45C16.25 39.75 16.4 40.1 16.4 40.5C16.4 40.9 16.25 41.25 15.95 41.55C15.65 41.85 15.3 42 14.9 42ZM24 42C23.6 42 23.25 41.85 22.95 41.55C22.65 41.25 22.5 40.9 22.5 40.5C22.5 40.1 22.65 39.75 22.95 39.45C23.25 39.15 23.6 39 24 39C24.4 39 24.75 39.15 25.05 39.45C25.35 39.75 25.5 40.1 25.5 40.5C25.5 40.9 25.35 41.25 25.05 41.55C24.75 41.85 24.4 42 24 42ZM33.1 42C32.7 42 32.35 41.85 32.05 41.55C31.75 41.25 31.6 40.9 31.6 40.5C31.6 40.1 31.75 39.75 32.05 39.45C32.35 39.15 32.7 39 33.1 39C33.5 39 33.85 39.15 34.15 39.45C34.45 39.75 34.6 40.1 34.6 40.5C34.6 40.9 34.45 41.25 34.15 41.55C33.85 41.85 33.5 42 33.1 42Z" fill="#4B626A"/>
</g>
</svg>
