<svg width="48" height="48" viewBox="0 0 48 48" fill="none" xmlns="http://www.w3.org/2000/svg">
<mask id="mask0_34_422" style="mask-type:alpha" maskUnits="userSpaceOnUse" x="0" y="0" width="48" height="48">
<rect width="48" height="48" fill="#D9D9D9"/>
</mask>
<g mask="url(#mask0_34_422)">
<path d="M6 15.05H42V35.5C42 36.75 41.5625 37.8125 40.6875 38.6875C39.8125 39.5625 38.75 40 37.5 40H10.5C9.25 40 8.1875 39.5625 7.3125 38.6875C6.4375 37.8125 6 36.75 6 35.5V15.05ZM9 18.05V35.5C9 35.925 9.14383 36.2812 9.4315 36.5685C9.71883 36.8562 10.075 37 10.5 37H37.5C37.925 37 38.2813 36.8562 38.569 36.5685C38.8563 36.2812 39 35.925 39 35.5V18.05H9ZM6 13.05V10H18.5V7.5C18.5 7.075 18.6438 6.71867 18.9315 6.431C19.2188 6.14367 19.575 6 20 6H28C28.425 6 28.7813 6.14367 29.069 6.431C29.3563 6.71867 29.5 7.075 29.5 7.5V10H42V13.05H6Z" fill="#4B626A"/>
</g>
</svg>
