<svg width="48" height="48" viewBox="0 0 48 48" fill="none" xmlns="http://www.w3.org/2000/svg">
<mask id="mask0_34_424" style="mask-type:alpha" maskUnits="userSpaceOnUse" x="0" y="0" width="48" height="48">
<rect width="48" height="48" fill="#D9D9D9"/>
</mask>
<g mask="url(#mask0_34_424)">
<path d="M24 41.65C22.8 41.65 21.75 41.2 20.85 40.3C19.95 39.4 19.5 38.35 19.5 37.15C19.5 35.95 19.95 34.9 20.85 34C21.75 33.1 22.8 32.65 24 32.65C25.2 32.65 26.25 33.1 27.15 34C28.05 34.9 28.5 35.95 28.5 37.15C28.5 38.35 28.05 39.4 27.15 40.3C26.25 41.2 25.2 41.65 24 41.65ZM11.6 30.15L8.45 27C10.7833 24.6667 13.225 22.9167 15.775 21.75C18.325 20.5833 21.0667 20 24 20C26.9333 20 29.675 20.5833 32.225 21.75C34.775 22.9167 37.2167 24.6667 39.55 27L36.4 30.15C34.3667 28.1167 32.3167 26.6667 30.25 25.8C28.1833 24.9333 26.1 24.5 24 24.5C21.9 24.5 19.8167 24.9333 17.75 25.8C15.6833 26.6667 13.6333 28.1167 11.6 30.15ZM3.15 21.7L0 18.55C3.1 15.3833 6.70833 12.8333 10.825 10.9C14.9417 8.96667 19.3333 8 24 8C28.6667 8 33.0583 8.96667 37.175 10.9C41.2917 12.8333 44.9 15.3833 48 18.55L44.85 21.7C41.9167 18.9 38.7083 16.6667 35.225 15C31.7417 13.3333 28 12.5 24 12.5C20 12.5 16.2583 13.3333 12.775 15C9.29167 16.6667 6.08333 18.9 3.15 21.7Z" fill="#4B626A"/>
</g>
</svg>
